<?xml version="1.0" encoding="utf-8" ?><svg xmlns="http://www.w3.org/2000/svg" xmlns:xlink="http://www.w3.org/1999/xlink" width="491" height="114" viewBox="0 0 491 114"><clipPath id="cl_3"><rect x="-0.00020599365" width="490.62949" height="114.49553"/></clipPath><g clip-path="url(#cl_3)"><path fill="white" transform="matrix(0.459821 0 0 0.459821 -108.518 -94.2634)" d="M0 0L1536 0L1536 672L0 672L0 0Z"/><path fill="#F8D64C" transform="matrix(0.459821 0 0 0.459821 -108.518 -94.2634)" d="M228.847 200.331L1307.07 200.347C1307.52 229.756 1307.12 260.27 1307.13 289.797L1307.26 470.91C1269.06 470.269 1229.06 470.861 1190.73 470.857L962.602 470.841L228.692 470.755L228.847 200.331Z"/><path fill="#2B2019" transform="matrix(0.459821 0 0 0.459821 -108.518 -94.2634)" d="M1048.35 313.747C1084.02 307.964 1117.65 332.132 1123.55 367.788C1129.44 403.444 1105.38 437.149 1069.74 443.155C1033.95 449.187 1000.06 424.994 994.139 389.18C988.219 353.366 1012.52 319.555 1048.35 313.747Z"/><path fill="#F8D64C" transform="matrix(0.459821 0 0 0.459821 -108.518 -94.2634)" d="M1057.23 324.991C1098.98 321.821 1098.39 395.541 1083.16 419.182C1077.77 427.553 1071.5 430.332 1062.3 432.188C1038.93 432.787 1028.73 416.697 1026.31 395.633C1023.32 369.563 1023.67 329.389 1057.23 324.991Z"/><path fill="#2B2019" transform="matrix(0.459821 0 0 0.459821 -108.518 -94.2634)" d="M598.185 277.864L609.455 277.966C639.717 318.455 673.712 364.608 705.488 403.364C706.098 387.571 705.638 369.722 705.621 353.712C705.699 328.518 705.601 303.323 705.326 278.13L720.882 278.069C720.083 331.82 720.814 387.475 720.844 441.376C713.324 441.596 705.199 441.49 697.634 441.513C693.909 439.362 607.546 323.333 596.334 309.34C596.196 315.115 596.217 321.121 596.298 326.899C596.83 364.996 595.71 403.42 596.7 441.485L581.241 441.549L581.373 278.067L598.185 277.864Z"/><path fill="#2B2019" transform="matrix(0.459821 0 0 0.459821 -108.518 -94.2634)" d="M799.61 312.96C844.409 308.75 869.073 329.704 869.326 374.856C860.628 374.318 848.401 374.774 839.341 374.724L776.716 374.356C774.642 417.183 800.594 441.774 842.533 425.583C849.165 422.347 853.526 419.668 859.726 415.797L863.846 430.977C824.109 456.094 757.276 448.676 748.759 394.314C742.545 354.657 757.614 320.304 799.61 312.96Z"/><path fill="#F8D64C" transform="matrix(0.459821 0 0 0.459821 -108.518 -94.2634)" d="M807.024 324.95C831.363 323.452 838.584 342.134 840.83 362.278L812.388 362.204C802.832 362.151 793.233 362.448 783.648 362.418C775.271 362.391 776.446 357.614 778.667 351.071C783.395 337.138 791.857 327.186 807.024 324.95Z"/><path fill="#2B2019" transform="matrix(0.459821 0 0 0.459821 -108.518 -94.2634)" d="M878.623 315.154C888.662 315.589 901.682 315.119 911.822 315.014L939.885 360.726C950.941 345.612 961.896 330.424 972.749 315.163L989 315.059C977.374 333.03 960.386 354.763 947.635 372.395C962.839 395.279 977.883 418.27 992.763 441.366L984.212 441.245C976.249 441.587 967.67 441.57 959.652 441.687C950.795 425.823 937.976 407.919 928.159 391.815C916.454 406.273 902.701 426.201 891.893 441.569L875.228 441.685C878.927 435.933 886.096 426.863 890.344 421.115C900.283 407.53 910.352 394.039 920.547 380.646C906.899 359.232 891.638 336.739 878.623 315.154Z"/><path fill="#78B03E" transform="matrix(0.459821 0 0 0.459821 -108.518 -94.2634)" d="M458.753 235.845C464.178 233.26 472.984 230.048 478.845 227.735C479.891 235.574 481.093 241.395 481.326 249.394C481.193 251.571 481.033 253.746 480.846 255.919C479.337 275.324 470.03 293.291 455.049 305.718C441.362 317.132 423.657 322.557 405.925 320.769C375.251 317.9 351.599 293.664 345.358 264.262C342.506 250.824 343.907 241.507 345.279 228.025C350.892 229.651 361.101 233.63 366.133 236.273C365.758 241.986 365.309 247.97 365.692 253.67C366.558 267.088 372.728 279.611 382.839 288.475C402.237 305.173 431.289 302.583 447.473 282.671C459.719 267.606 460.284 254.258 458.753 235.845Z"/><path fill="#2B2019" transform="matrix(0.459821 0 0 0.459821 -108.518 -94.2634)" d="M342.726 325.043C345.322 324.928 347.922 324.996 350.508 325.246C408.791 330.311 430.269 395.053 395.29 438.882C390.071 445.422 384.927 449.625 378.563 454.924C374.878 448.852 371.175 442.17 367.602 435.983C380.21 425.119 384.939 418.86 389.788 403.043C391.025 395.872 390.987 388.138 389.387 381.029C386.82 369.23 379.572 358.979 369.305 352.623C363.044 348.71 356.516 346.782 349.186 346.413C325.55 345.22 309.607 357.277 297.867 376.415C291.098 373.951 284.345 371.445 277.607 368.897C291.102 342.382 313.388 327.801 342.726 325.043Z"/><path fill="#B42629" transform="matrix(0.459821 0 0 0.459821 -108.518 -94.2634)" d="M479.448 325.736C515.341 322.942 539.936 337.382 557.354 368.605C551.606 371.162 543.158 374.144 537.123 376.475C535.088 373.098 532.233 368.705 529.8 365.651C521.26 354.73 508.635 347.765 494.842 346.366C466.637 343.347 446.962 362.445 444.188 389.815C444.16 391.522 444.213 393.229 444.346 394.931C445.842 413.784 453.708 423.941 467.613 435.782C463.968 441.79 460.294 448.424 456.768 454.545L456.15 454.099C403.981 415.98 414.835 334.983 479.448 325.736Z"/><path fill="#2B2019" transform="matrix(0.459821 0 0 0.459821 -108.518 -94.2634)" d="M1236.12 403.077C1244.65 379.718 1275.41 397.81 1265.44 406.45C1257.94 408.252 1258.22 403.205 1255.16 397.814C1250.76 395.067 1246.91 398.352 1243.45 401.317C1246.93 414.859 1264.78 408.791 1268.04 421.353C1274.99 448.131 1228.3 442.043 1235.7 424.452C1248.41 417.864 1243.21 445.962 1259.47 429.775C1260.09 429.154 1259.9 426.323 1259.47 425.449C1251.37 414.49 1236.99 421.037 1236.12 403.077Z"/><path fill="#2B2019" transform="matrix(0.459821 0 0 0.459821 -108.518 -94.2634)" d="M1170.56 392.403C1171.66 392.322 1172.75 392.259 1173.85 392.215C1183.15 391.813 1198.76 398.327 1189.09 407.82L1187.57 407.668C1181.65 404.051 1181.07 393.735 1172.11 398.387C1169.31 399.836 1168.68 400.879 1168.68 403.929C1171.17 409.268 1180.88 411.323 1186.08 414.097C1194.61 418.643 1194.46 425.982 1190.14 433.816C1188.01 437.675 1183.76 438.426 1179.7 439.422C1173.08 439.686 1169.39 439.45 1163.91 435.436C1158.67 431.595 1158.36 427.207 1162.22 422.278C1167.27 421.283 1169.13 432.334 1174.69 433.84C1178.32 434.822 1183.48 432.221 1184.74 429.018C1184.08 419.914 1164.75 417.797 1161.49 408.427C1158.7 400.427 1163.56 395.518 1170.56 392.403Z"/><path fill="#2B2019" transform="matrix(0.459821 0 0 0.459821 -108.518 -94.2634)" d="M1208.95 392.616L1218.51 392.587C1223.03 406.094 1227.27 419.688 1231.25 433.361C1232.29 436.144 1232.87 436.158 1232.06 438.292C1230.19 439.509 1225.38 438.831 1223.15 438.449C1223.4 434.821 1220.95 427.915 1219.78 424.381C1216.27 424.318 1209.62 423.9 1206.61 424.965C1203.15 425.117 1203.5 422.325 1199.55 423.37C1202.67 413.401 1206.25 402.632 1208.95 392.616Z"/><path fill="#191715" transform="matrix(0.459821 0 0 0.459821 -108.518 -94.2634)" d="M1223.15 438.449C1223.49 436.657 1223.69 436.31 1224.52 434.678C1226.46 433.031 1228.66 433.363 1231.25 433.361C1232.29 436.144 1232.87 436.158 1232.06 438.292C1230.19 439.509 1225.38 438.831 1223.15 438.449Z"/><path fill="#F8D64C" transform="matrix(0.459821 0 0 0.459821 -108.518 -94.2634)" d="M1213.56 402.384C1215.05 405.221 1218.27 414.914 1216.81 417.86L1214.46 418.591C1213.19 418.507 1210.48 418.548 1210.07 417.177C1208.89 413.133 1212.13 406.3 1213.56 402.384Z"/><path fill="#B42629" transform="matrix(0.459821 0 0 0.459821 -108.518 -94.2634)" d="M413.889 327.205C419.033 326.043 424.403 327.758 427.921 331.688C431.438 335.617 432.551 341.143 430.829 346.128C429.107 351.113 424.82 354.773 419.627 355.693C411.853 357.07 404.402 351.991 402.843 344.251C401.284 336.512 406.188 328.944 413.889 327.205Z"/><path fill="#2B2019" transform="matrix(0.459821 0 0 0.459821 -108.518 -94.2634)" d="M1199.55 423.37C1203.5 422.325 1203.15 425.117 1206.61 424.965C1205.54 430.582 1204.78 442.484 1195.41 438.557C1195.04 435.933 1198.57 426.348 1199.55 423.37Z"/></g></svg>