<?xml version="1.0"?>
<svg xmlns="http://www.w3.org/2000/svg" xmlns:xlink="http://www.w3.org/1999/xlink" width="540" height="170" viewBox="100 260 540 170">
  <defs>
    <linearGradient id="gradient_0" gradientUnits="userSpaceOnUse" x1="148.22449" y1="294.14951" x2="154.16074" y2="212.48294">
      <stop offset="0" stop-color="#BD8316"></stop>
      <stop offset="1" stop-color="#FCCA50"></stop>
    </linearGradient>
    <linearGradient id="gradient_1" gradientUnits="userSpaceOnUse" x1="245.70241" y1="272.59366" x2="240.54143" y2="219.39125">
      <stop offset="0" stop-color="#C68F23"></stop>
      <stop offset="1" stop-color="#FAC64D"></stop>
    </linearGradient>
    <linearGradient id="gradient_2" gradientUnits="userSpaceOnUse" x1="371.83719" y1="271.68524" x2="372.49457" y2="232.59645">
      <stop offset="0" stop-color="#C99329"></stop>
      <stop offset="1" stop-color="#E9B33C"></stop>
    </linearGradient>
    <linearGradient id="gradient_3" gradientUnits="userSpaceOnUse" x1="123.31397" y1="245.12512" x2="122.82036" y2="206.52925">
      <stop offset="0" stop-color="#DFA632"></stop>
      <stop offset="1" stop-color="#FFD65F"></stop>
    </linearGradient>
    <linearGradient id="gradient_4" gradientUnits="userSpaceOnUse" x1="331.34064" y1="271.70892" x2="333.09769" y2="232.37431">
      <stop offset="0" stop-color="#C38E27"></stop>
      <stop offset="1" stop-color="#EAB43C"></stop>
    </linearGradient>
  </defs>

  
  <path fill="url(#gradient_0)" transform="scale(1.39709 1.39709)" d="M162.168 211.676C172.011 203.995 184.542 203.607 194.117 212.001C195.852 213.522 197.028 215.357 198.327 217.234C200.594 221.329 201.816 226.757 201.223 231.425C200.703 235.664 198.956 239.658 196.197 242.918C193.695 245.836 189.09 249.088 185.971 251.433L176.235 258.875L141.411 286.028C134.716 291.165 129.754 293.98 120.922 292.769C115 291.927 109.662 288.748 106.101 283.941C102.193 278.695 101.174 272.837 101.969 266.429C103.249 256.115 111.405 251.314 118.868 245.563L135.715 232.627C144.401 225.88 153.413 218.158 162.168 211.676ZM125.252 277.912C127.125 277.642 128.089 277.185 129.611 276.047C135.301 271.791 140.778 267.171 146.4 262.806L167.548 246.413C173.016 242.235 179.225 237.863 184.12 233.009C184.943 232.193 185.507 229.952 185.454 228.823C185.292 223.91 182.044 221.085 177.219 221.068C175.62 221.337 174.431 221.776 173.14 222.751C166.621 227.673 160.145 232.93 153.714 237.958C148.069 242.403 142.382 246.796 136.655 251.135C130.864 255.561 123.582 260.698 118.512 265.997C117.282 267.282 116.713 271.036 117.37 272.653C118.605 276.432 121.443 277.949 125.252 277.912Z"></path>
  <path fill="#FDD058" transform="scale(1.39709 1.39709)" d="M162.168 211.676C172.011 203.995 184.542 203.607 194.117 212.001C195.852 213.522 197.028 215.357 198.327 217.234C198.234 218.203 198.429 217.852 197.956 218.497C194.401 219.423 188.724 214.97 184.288 214.91C179.757 214.849 164.993 215.908 161.857 213.077L162.168 211.676Z"></path>
  <path fill="url(#gradient_1)" transform="scale(1.39709 1.39709)" d="M226.729 220.583C228.049 220.602 229.72 220.766 231.066 220.861C233.234 222.494 240.395 233.769 242.318 236.607C246.716 243.119 251.163 249.598 255.66 256.042C255.168 253.162 254.962 223.965 255.502 221.245C256.414 220.503 263.872 220.759 265.881 220.63C266.07 226.516 265.803 232.901 265.771 238.834C265.64 249.785 265.718 260.737 266.003 271.685C264.364 271.614 262.724 271.562 261.084 271.528C259.045 271.556 256.953 271.489 254.911 271.449C253.136 269.547 248.573 262.566 246.956 260.2C241.712 252.439 236.4 244.724 231.021 237.056C231.197 239.579 231.065 242.839 231.069 245.441L231.141 261.641C231.159 264.484 231.079 268.788 231.513 271.494C228.203 271.427 223.733 271.346 220.51 271.691C220.48 266.373 220.137 222.319 220.704 221.089C222.022 220.643 225.227 220.641 226.729 220.583Z"></path>
  <path fill="url(#gradient_2)" transform="scale(1.39709 1.39709)" d="M370.038 231.847C381.226 230.513 391.382 238.489 392.739 249.674C394.097 260.86 386.144 271.033 374.962 272.415C363.746 273.801 353.534 265.818 352.172 254.599C350.81 243.379 358.815 233.185 370.038 231.847ZM374.818 263.492C385.082 261.509 385.729 239.121 370.619 240.774C359.138 243.239 359.082 265.993 374.818 263.492Z"></path>
  <path fill="#D19B2D" transform="scale(1.39709 1.39709)" d="M289.603 231.996C294.967 231.737 300.956 232.58 305.092 236.226C311.754 242.099 311.701 247.642 312.439 255.512C309.659 255.265 305.628 255.304 302.712 255.264C295.878 255.185 289.042 255.204 282.208 255.322L282.25 255.561C282.676 257.882 283.058 259.557 284.705 261.424C287.512 264.604 292.471 265.12 296.282 263.707C298.544 262.869 299.896 261.5 301.633 259.927C303.079 259.78 304.72 259.784 306.192 259.753L311.257 259.773C308.775 267.048 304.137 270.738 296.377 272.077C276.795 275.457 265.205 255.285 276.098 239.401C279.179 234.908 284.202 232.775 289.603 231.996ZM282.208 248.562C286.435 248.383 289.418 248.437 293.648 248.559C296.442 248.526 299.236 248.508 302.03 248.506C300.464 241.739 296.761 239.555 289.991 240.058C284.843 241.486 283.949 243.859 282.208 248.562Z"></path>
  <path fill="#D19B2D" transform="scale(1.39709 1.39709)" d="M194.006 252.91C194.465 252.934 194.812 252.932 195.172 253.37C198.66 257.629 200.76 262.401 201.402 267.876C202.882 280.478 192.683 291.919 180.178 292.781C172.829 293.288 167.696 291.097 162.137 286.356C161.07 285.284 160.02 284.194 158.989 283.087C158.274 282.31 157.741 281.844 157.784 280.863C159.287 278.485 167.155 273.323 169.669 271.579C171.738 274.685 173.75 277.402 177.796 277.863C182.237 278.37 185.777 274.955 185.96 270.59C186.111 266.982 184.125 264.802 181.841 262.38C184.809 259.34 190.362 255.196 194.006 252.91Z"></path>
  <path fill="url(#gradient_3)" transform="scale(1.39709 1.39709)" d="M121.954 206.126C132.696 205.08 138.82 209.986 145.445 217.689C143.816 219.351 135.462 225.755 133.387 227.075C131.389 224.764 129.868 222.463 126.798 221.393C122.573 219.922 118.828 221.806 117.512 226.118C116.528 229.341 117.059 231.667 118.548 234.602C119.123 235.429 120.04 236.215 120.786 236.92C118.93 238.757 110.869 244.612 108.364 246.522C95.3955 231.692 101.413 208.305 121.954 206.126Z"></path>
  <path fill="url(#gradient_4)" transform="scale(1.39709 1.39709)" d="M312.739 232.316C316.503 233.006 319.831 232.48 323.294 232.616C325.762 232.712 330.933 243.068 332.401 245.312C334.07 242.158 336.74 237.826 338.622 234.851C340.69 231.584 347.535 232.98 352.174 232.38C348.525 237.017 342.536 246.098 339.558 251.077C338.1 253.513 351.565 268.4 351.885 271.168L351.507 271.483C347.925 271.516 344.343 271.521 340.761 271.498C338.81 269.203 334.155 261.316 332.125 258.27C331.058 260.527 325.426 269.841 323.356 271.194C322.334 271.862 114.133 271.773 312.799 271.438C313.024 269.393 323.967 254.389 325.816 251.892C322.547 246.433 315.155 237.402 312.739 232.316Z"></path>
  <text x="580" y="378" font-family="&#39;Montserrat&#39;, &#39;Arial&#39;, sans-serif" font-size="20" font-weight="bold" fill="#D19B2D" letter-spacing="4" text-anchor="middle">SAS</text>
</svg>